<?xml version="1.0" encoding="utf-8"?>
<!-- Generator: Adobe Illustrator 25.4.1, SVG Export Plug-In . SVG Version: 6.00 Build 0)  -->
<svg version="1.1" id="Layer_1" xmlns="http://www.w3.org/2000/svg" xmlns:xlink="http://www.w3.org/1999/xlink" x="0px" y="0px"
	 viewBox="0 0 2400 506.92" style="enable-background:new 0 0 2400 506.92;" xml:space="preserve">
<style type="text/css">
	.st0{fill:#10069F;}
</style>
<g>
	<g>
		<path class="st0" d="M225.48,116.24c-1.38-1.82-2.95-2.78-4.7-2.78c-1.44,0-2.75,0.64-3.6,1.19
			c-13.26,10.42-31.4,54.53-46.27,112.67l13.16,0.15c26,0.29,52.84,0.6,79.38,1.01c-6.99-26.63-13.61-49.45-19.67-67.88
			C234.92,133.67,228.94,121.61,225.48,116.24z"/>
		<path class="st0" d="M254.99,4.15c-137.52,0-249,111.48-249,249c0,137.52,111.48,249,249,249s249-111.48,249-249
			C503.99,115.63,392.51,4.15,254.99,4.15z M434.04,257.67c-0.02,0.02-0.04,0.03-0.06,0.05c-0.27,0.22-0.54,0.42-0.83,0.62
			c-0.09,0.06-0.18,0.13-0.28,0.19c-0.19,0.12-0.39,0.24-0.58,0.35c-0.18,0.11-0.36,0.21-0.54,0.31c-0.01,0.01-0.02,0.01-0.03,0.02
			c-1.83,0.96-3.92,1.51-6.13,1.51c-0.18,0-117.95,0-117.95,0c0.94,3.91,1.97,8.35,3.09,13.18c6.46,27.91,23.64,102.06,41.88,102.06
			l0.36,0.01l0.2-0.03l0.35,0c14.25,0,21.52-20.6,37.46-65.74l0.19-0.55c2.56-7.25,5.45-15.43,8.58-24.08l0.8-2.21l0.01,0
			c0.81-2.16,2.89-3.7,5.34-3.7c3.15,0,5.71,2.56,5.71,5.71c0,0.57-0.09,1.12-0.24,1.64l0,0l-0.66,2.22
			c-1.66,5.37-3.43,12.69-5.47,21.16c-9.5,39.37-23.85,98.85-60.67,98.85l-0.27,0c-23.79-0.19-38.03-38.22-44.11-54.46
			c-11.37-30.37-19.97-62.73-28.27-94.07H163.34l-22.54,72.14l-0.33-0.26c-2.06,3.24-5.68,5.32-9.67,5.32
			c-6.29,0-11.44-5.12-11.47-11.41l0.02-0.39l1.36-8.16c3.11-18.54,6.84-37.78,11.1-57.23H85.97l-0.17-0.17
			c-8.32-1.2-14.71-8.54-14.71-17.1c0-8.39,5.94-15.54,14.12-16.99c0.75-0.1,2.27-0.23,5.36-0.23c0.66,0,1.4,0,2.23,0.02
			c14.53,0.25,29.95,0.48,46.86,0.7c23.93-97.24,51.65-146.6,82.4-146.74c32.99,0,57.47,75.12,77.06,148.61l0.08,0.29
			c40.25,0.81,83.15,1.98,124.86,4.97l1.75,0.16c0.67,0.01,1.33,0.08,1.97,0.18l0.24,0.02c0.07,0.01,0.14,0.03,0.21,0.05
			c0.04,0.01,0.07,0.02,0.11,0.02c6.07,1.22,10.57,6.54,10.57,12.94C438.91,251.55,437.01,255.24,434.04,257.67z"/>
	</g>
	<g>
		<path class="st0" d="M642.17,315.45l-19.74,48.78h-57.35L674.2,109.52h50.65l108.74,254.72h-56.98l-19.74-48.78H642.17z
			 M699.15,173.94l-37.24,92.73h75.22L699.15,173.94z"/>
		<path class="st0" d="M1156.82,266.3v97.94h-51.76v-93.47c0-28.3-13.78-43.57-37.98-43.57c-10.8,0-22.72,4.84-33.52,19.74
			c0.75,6.33,1.49,12.66,1.49,19.36v97.94h-51.76v-93.47c0-28.3-13.78-43.57-38.36-43.57c-10.05,0-21.23,5.96-31.65,20.11v116.93
			h-51.76V185.86h51.76v10.8c11.17-10.43,23.09-16.39,43.94-16.39c22.72,0,42.82,8.94,56.98,25.32
			c18.99-17.5,36.87-25.32,64.8-25.32C1122.56,180.27,1156.82,214.16,1156.82,266.3z"/>
		<path class="st0" d="M1384.35,275.23c0,51.76-39.47,92.72-88.63,92.72c-20.11,0-36.87-5.21-50.64-14.15v96.45h-51.76v-264.4h51.76
			v10.43c13.78-8.94,30.54-14.15,50.64-14.15C1344.87,182.14,1384.35,222.73,1384.35,275.23z M1333.33,275.23
			c0-26.44-19.36-49.53-46.18-49.53c-15.27,0-30.54,5.21-42.08,20.85v56.98c11.54,15.27,26.81,20.48,42.08,20.48
			C1313.96,324.02,1333.33,301.3,1333.33,275.23z"/>
		<path class="st0" d="M1465.15,364.23h-51.76V99.84h51.76V364.23z"/>
		<path class="st0" d="M1511.7,122.93c0-17.5,13.78-30.54,31.28-30.54c17.13,0,30.91,13.03,30.91,30.54
			c0,17.13-13.78,29.79-30.91,29.79C1525.48,152.72,1511.7,140.06,1511.7,122.93z M1569.05,185.86v178.38h-51.76V185.86H1569.05z"/>
		<path class="st0" d="M1757.1,361.63c-21.6,6.7-31.28,8.19-48.04,8.19c-43.2,0-71.5-30.54-71.5-76.71v-63.68h-37.61v-43.57h37.61
			v-63.68h51.39v63.68h64.42v43.57h-64.42v63.31c0,20.11,12.29,29.42,31.28,29.42c9.68,0,20.11-2.23,30.16-4.84L1757.1,361.63z"/>
		<path class="st0" d="M1964.89,364.23h-51.76v-12.66c-14.52,11.54-30.91,18.25-51.02,18.25c-46.92,0-78.2-33.89-78.2-85.65v-98.31
			h51.76v93.47c0,28.3,14.15,43.57,38.36,43.57c13.03,0,27.18-7.82,39.1-22.34v-114.7h51.76V364.23z"/>
		<path class="st0" d="M2184.61,364.23h-51.76v-10.43c-13.78,8.94-30.54,14.15-50.65,14.15c-49.16,0-89-40.59-89-93.1
			c0-51.76,39.85-92.73,89-92.73c20.11,0,36.87,5.21,50.65,14.15V99.84h51.76V364.23z M2132.84,303.54v-56.98
			c-11.54-15.27-26.81-20.48-42.08-20.48c-27.18,0-46.18,22.72-46.18,48.78c0,26.44,18.99,49.53,46.18,49.53
			C2106.03,324.39,2121.3,319.18,2132.84,303.54z"/>
		<path class="st0" d="M2394.63,288.27h-131.45c4.1,20.85,17.88,37.24,46.18,37.24c14.52,0,24.58-4.47,30.16-13.41h54
			c-9.68,34.26-43.2,57.72-85.28,57.72c-57.35,0-96.08-41.33-96.08-94.59c0-55.11,38.36-94.96,94.59-94.96
			c51.02,0,89,36.12,89,91.24C2395.75,278.96,2395.38,283.05,2394.63,288.27z M2263.55,257.73h80.81
			c-2.98-22.34-16.39-34.63-37.24-34.63C2282.17,223.1,2268.39,237.62,2263.55,257.73z"/>
	</g>
</g>
</svg>
